<?xml version="1.0" encoding="UTF-8" standalone="yes"?>
<!DOCTYPE svg PUBLIC "-//W3C//DTD SVG 1.0//EN" "http://www.w3.org/TR/2001/REC-SVG-20010904/DTD/svg10.dtd">
<svg height="200" width="400" xmlns="http://www.w3.org/2000/svg" xmlns:svg="http://www.w3.org/2000/svg" xmlns:xlink="http://www.w3.org/1999/xlink">
	<line style="fill: gray; stroke: gray; stroke-width: 3" x1="0" x2="0" y1="0" y2="200" />
	<line style="fill: gray; stroke: gray; stroke-width: 3" x1="0" x2="400" y1="0" y2="0" />
	<line style="fill: gray; stroke: gray; stroke-width: 3" x1="400" x2="0" y1="200" y2="200" />
	<line style="fill: gray; stroke: gray; stroke-width: 3" x1="400" x2="400" y1="200" y2="0" />
	<circle cx="333" cy="71" r="0.7" style="fill: red; stroke: red; stroke-width: 2" />
	<circle cx="39" cy="11" r="0.7" style="fill: red; stroke: red; stroke-width: 2" />
	<circle cx="140" cy="44" r="0.7" style="fill: red; stroke: red; stroke-width: 2" />
	<circle cx="292" cy="66" r="0.7" style="fill: red; stroke: red; stroke-width: 2" />
	<circle cx="393" cy="148" r="0.7" style="fill: red; stroke: red; stroke-width: 2" />
	<circle cx="160" cy="34" r="0.7" style="fill: red; stroke: red; stroke-width: 2" />
	<circle cx="362" cy="78" r="0.7" style="fill: red; stroke: red; stroke-width: 2" />
	<circle cx="13" cy="7" r="0.7" style="fill: red; stroke: red; stroke-width: 2" />
	<circle cx="341" cy="96" r="0.7" style="fill: red; stroke: red; stroke-width: 2" />
	<circle cx="320" cy="87" r="0.7" style="fill: red; stroke: red; stroke-width: 2" />
	<circle cx="109" cy="23" r="0.7" style="fill: red; stroke: red; stroke-width: 2" />
	<circle cx="203" cy="48" r="0.7" style="fill: red; stroke: red; stroke-width: 2" />
	<circle cx="343" cy="100" r="0.7" style="fill: red; stroke: red; stroke-width: 2" />
	<circle cx="225" cy="90" r="0.7" style="fill: red; stroke: red; stroke-width: 2" />
	<circle cx="23" cy="14" r="0.7" style="fill: red; stroke: red; stroke-width: 2" />
	<circle cx="282" cy="98" r="0.7" style="fill: red; stroke: red; stroke-width: 2" />
	<circle cx="284" cy="102" r="0.7" style="fill: red; stroke: red; stroke-width: 2" />
	<circle cx="205" cy="67" r="0.7" style="fill: red; stroke: red; stroke-width: 2" />
	<circle cx="297" cy="86" r="0.7" style="fill: red; stroke: red; stroke-width: 2" />
	<circle cx="292" cy="74" r="0.7" style="fill: red; stroke: red; stroke-width: 2" />
	<circle cx="339" cy="88" r="0.7" style="fill: red; stroke: red; stroke-width: 2" />
	<circle cx="327" cy="121" r="0.7" style="fill: red; stroke: red; stroke-width: 2" />
	<circle cx="253" cy="64" r="0.7" style="fill: red; stroke: red; stroke-width: 2" />
	<circle cx="61" cy="31" r="0.7" style="fill: red; stroke: red; stroke-width: 2" />
	<circle cx="128" cy="24" r="0.7" style="fill: red; stroke: red; stroke-width: 2" />
	<circle cx="346" cy="128" r="0.7" style="fill: red; stroke: red; stroke-width: 2" />
	<circle cx="316" cy="97" r="0.7" style="fill: red; stroke: red; stroke-width: 2" />
	<circle cx="124" cy="38" r="0.7" style="fill: red; stroke: red; stroke-width: 2" />
	<circle cx="65" cy="19" r="0.7" style="fill: red; stroke: red; stroke-width: 2" />
	<circle cx="159" cy="63" r="0.7" style="fill: red; stroke: red; stroke-width: 2" />
	<circle cx="212" cy="84" r="0.7" style="fill: red; stroke: red; stroke-width: 2" />
	<circle cx="337" cy="114" r="0.7" style="fill: red; stroke: red; stroke-width: 2" />
	<circle cx="215" cy="64" r="0.7" style="fill: red; stroke: red; stroke-width: 2" />
	<circle cx="153" cy="63" r="0.7" style="fill: red; stroke: red; stroke-width: 2" />
	<circle cx="390" cy="96" r="0.7" style="fill: red; stroke: red; stroke-width: 2" />
	<circle cx="100" cy="20" r="0.7" style="fill: red; stroke: red; stroke-width: 2" />
	<circle cx="76" cy="12" r="0.7" style="fill: red; stroke: red; stroke-width: 2" />
	<circle cx="77" cy="19" r="0.7" style="fill: red; stroke: red; stroke-width: 2" />
	<circle cx="69" cy="5" r="0.7" style="fill: red; stroke: red; stroke-width: 2" />
	<circle cx="92" cy="14" r="0.7" style="fill: red; stroke: red; stroke-width: 2" />
	<circle cx="275" cy="104" r="0.7" style="fill: red; stroke: red; stroke-width: 2" />
	<circle cx="250" cy="53" r="0.7" style="fill: red; stroke: red; stroke-width: 2" />
	<circle cx="34" cy="26" r="0.7" style="fill: red; stroke: red; stroke-width: 2" />
	<circle cx="213" cy="66" r="0.7" style="fill: red; stroke: red; stroke-width: 2" />
	<circle cx="186" cy="71" r="0.7" style="fill: red; stroke: red; stroke-width: 2" />
	<circle cx="189" cy="46" r="0.7" style="fill: red; stroke: red; stroke-width: 2" />
	<circle cx="361" cy="118" r="0.7" style="fill: red; stroke: red; stroke-width: 2" />
	<circle cx="363" cy="111" r="0.7" style="fill: red; stroke: red; stroke-width: 2" />
	<line style="fill: blue; stroke: blue; stroke-width: 0.5" x1="393" x2="13" y1="117.76" y2="3.76" />
	<!--
	Generated using the Perl SVG Module V2.86
	by Ronan Oger
	Info: http://www.roitsystems.com/
	-->
</svg>
